<svg height='100px' width='100px'  fill="#000000" xmlns="http://www.w3.org/2000/svg" data-name="Layer 3" viewBox="0 0 64 64" x="0px" y="0px"><title>flasks-testing-laboratory-chemical-education-test tube-chemistry-science</title><path d="M62,57H61V44a1,1,0,0,0-1-1H59V41.093a8.982,8.982,0,0,0-2.34-6.054l-6.619-7.282A3.984,3.984,0,0,1,49,25.067V21.535l2.555-1.7A1,1,0,0,0,52,19V16a1,1,0,0,0-1-1H48V10a9.01,9.01,0,0,0-9-9H25a9.01,9.01,0,0,0-9,9v5H13a1,1,0,0,0-1,1v3a1,1,0,0,0,.445.832L15,21.535v3.532a3.984,3.984,0,0,1-1.041,2.69L7.34,35.039A8.982,8.982,0,0,0,5,41.093V43H4a1,1,0,0,0-1,1V57H2a1,1,0,0,0-1,1v4a1,1,0,0,0,1,1H62a1,1,0,0,0,1-1V58A1,1,0,0,0,62,57ZM33,43V41.093c0-.031,0-.062,0-.093a3.4,3.4,0,0,0,2.41-1L36,39.414a1.451,1.451,0,0,1,2,0l.586.586a3.5,3.5,0,0,0,4.828,0L44,39.414a1.451,1.451,0,0,1,2,0l.586.586a3.5,3.5,0,0,0,4.828,0L52,39.414a1.451,1.451,0,0,1,2,0l.586.586A3.4,3.4,0,0,0,57,41c0,.031,0,.062,0,.093V43ZM25,15H22V10a3,3,0,0,1,3-3H39a3,3,0,0,1,3,3v5H39a1,1,0,0,0-1,1v3a1,1,0,0,0,.445.832L41,21.535v3.532a3.984,3.984,0,0,1-1.041,2.69L33.34,35.039A9,9,0,0,0,32,36.978a9,9,0,0,0-1.34-1.939l-6.619-7.282A3.984,3.984,0,0,1,23,25.067V21.535l2.555-1.7A1,1,0,0,0,26,19V16A1,1,0,0,0,25,15Zm25,3.465-2.555,1.7A1,1,0,0,0,47,21v4.067A5.991,5.991,0,0,0,48.561,29.1l6.619,7.282a6.968,6.968,0,0,1,1.471,2.546A1.383,1.383,0,0,1,56,38.586L55.414,38a3.5,3.5,0,0,0-4.828,0L50,38.586a1.451,1.451,0,0,1-2,0L47.414,38a3.5,3.5,0,0,0-4.828,0L42,38.586a1.451,1.451,0,0,1-2,0L39.414,38a3.5,3.5,0,0,0-4.828,0L34,38.586a1.383,1.383,0,0,1-.651.345,6.968,6.968,0,0,1,1.471-2.546L41.439,29.1A5.991,5.991,0,0,0,43,25.067V21a1,1,0,0,0-.445-.832L40,18.465V17H50ZM18,10a7.008,7.008,0,0,1,7-7H39a7.008,7.008,0,0,1,7,7v5H44V10a5.006,5.006,0,0,0-5-5H25a5.006,5.006,0,0,0-5,5v5H18ZM15.439,29.1A5.991,5.991,0,0,0,17,25.067V21a1,1,0,0,0-.445-.832L14,18.465V17H24v1.465l-2.555,1.7A1,1,0,0,0,21,21v4.067A5.991,5.991,0,0,0,22.561,29.1l6.619,7.282a6.968,6.968,0,0,1,1.471,2.546A1.383,1.383,0,0,1,30,38.586L29.414,38a3.5,3.5,0,0,0-4.828,0L24,38.586a1.451,1.451,0,0,1-2,0L21.414,38a3.5,3.5,0,0,0-4.828,0L16,38.586a1.451,1.451,0,0,1-2,0L13.414,38a3.5,3.5,0,0,0-4.828,0L8,38.586a1.383,1.383,0,0,1-.651.345A6.968,6.968,0,0,1,8.82,36.385ZM7,41.093c0-.031,0-.062,0-.093a3.4,3.4,0,0,0,2.41-1L10,39.414a1.451,1.451,0,0,1,2,0l.586.586a3.5,3.5,0,0,0,4.828,0L18,39.414a1.451,1.451,0,0,1,2,0l.586.586a3.5,3.5,0,0,0,4.828,0L26,39.414a1.451,1.451,0,0,1,2,0l.586.586A3.4,3.4,0,0,0,31,41c0,.031,0,.062,0,.093V43H7ZM59,45v2H5V45ZM5,49H59v8H5ZM61,61H3V59H61Z"></path><path d="M5,25a3,3,0,1,0,3-3A3,3,0,0,0,5,25Zm4,0a1,1,0,1,1-1-1A1,1,0,0,1,9,25Z"></path><path d="M32,17a3,3,0,1,0-3-3A3,3,0,0,0,32,17Zm0-4a1,1,0,1,1-1,1A1,1,0,0,1,32,13Z"></path><path d="M59,11a4,4,0,1,0-4-4A4,4,0,0,0,59,11Zm0-6a2,2,0,1,1-2,2A2,2,0,0,1,59,5Z"></path><path d="M5,9A4,4,0,1,0,1,5,4,4,0,0,0,5,9ZM5,3A2,2,0,1,1,3,5,2,2,0,0,1,5,3Z"></path><path d="M56,28a3,3,0,1,0-3-3A3,3,0,0,0,56,28Zm0-4a1,1,0,1,1-1,1A1,1,0,0,1,56,24Z"></path></svg>